<svg xmlns="http://www.w3.org/2000/svg" width="860" height="500" viewBox="0 0 860 500" font-family="ui-sans-serif,system-ui,-apple-system,Segoe UI,Roboto,sans-serif"><rect x="10" y="10" width="840" height="480" rx="14" fill="#fcfcfb" stroke="#dddad0" stroke-width="1.5"/><rect x="10" y="10" width="840" height="52" rx="14" fill="#f4f2ec"/><rect x="10" y="46" width="840" height="16" fill="#f4f2ec"/><circle cx="34" cy="36" r="8" fill="none" stroke="#0b0b0b" stroke-width="2.5"/><line x1="40" y1="42" x2="46" y2="48" stroke="#0b0b0b" stroke-width="2.5" stroke-linecap="round"/><text x="56" y="43" font-size="20" font-weight="700" fill="#0b0b0b">BioClaim Auditor</text><text x="830" y="42" font-size="12.5" fill="#6b6b66" text-anchor="end">a claim-auditing tool for life-sciences evidence</text><text x="30" y="88" font-size="11" letter-spacing="1.2" fill="#6b6b66">CLAIM</text><text x="30" y="110" font-size="16" font-weight="600" fill="#0b0b0b">BRAF V600E melanoma is associated with response to targeted inhibitor treatment.</text><rect x="30" y="140" width="330" height="34" rx="17" fill="#bf8700"/><text x="195.0" y="162" font-size="13" font-weight="700" fill="#fff" text-anchor="middle">AUDIT VERDICT · CONTESTED +0.00</text><text x="376" y="162" font-size="12.5" fill="#6b6b66">1 supporting · 1 conflicting clinical source</text><text x="30" y="202" font-size="11" letter-spacing="1.2" fill="#6b6b66">EVIDENCE MAP — coverage by claim entity</text><text x="175" y="240" font-size="13" fill="#0b0b0b" text-anchor="end">BRAF</text><rect x="190" y="229" width="230" height="13" rx="3" fill="#eceae3"/><rect x="190.0" y="229" width="113.0" height="13" rx="3" fill="#0ca30c"/><rect x="305.0" y="229" width="113.0" height="13" rx="3" fill="#fab219"/><text x="432" y="240" font-size="12" fill="#6b6b66">1 supporting · 1 conflicting</text><text x="175" y="266" font-size="13" fill="#0b0b0b" text-anchor="end">melanoma</text><rect x="190" y="255" width="230" height="13" rx="3" fill="#eceae3"/><rect x="190.0" y="255" width="113.0" height="13" rx="3" fill="#0ca30c"/><rect x="305.0" y="255" width="113.0" height="13" rx="3" fill="#fab219"/><text x="432" y="266" font-size="12" fill="#6b6b66">1 supporting · 1 conflicting</text><text x="175" y="292" font-size="13" fill="#0b0b0b" text-anchor="end">targeted therapy</text><rect x="190" y="281" width="230" height="13" rx="3" fill="#eceae3"/><rect x="190.0" y="281" width="113.0" height="13" rx="3" fill="#0ca30c"/><rect x="305.0" y="281" width="113.0" height="13" rx="3" fill="#fab219"/><text x="432" y="292" font-size="12" fill="#6b6b66">1 supporting · 1 conflicting</text><text x="30" y="330" font-size="11" letter-spacing="1.2" fill="#6b6b66">AUDIT</text><rect x="30" y="337" width="180" height="22" rx="11" fill="#0ca30c" fill-opacity="0.12" stroke="#0ca30c" stroke-opacity="0.5"/><circle cx="43" cy="348" r="3.5" fill="#0ca30c"/><text x="52" y="352" font-size="12.5" fill="#0b0b0b">citations 2/2 verbatim</text><rect x="220" y="337" width="116" height="22" rx="11" fill="#bf8700" fill-opacity="0.12" stroke="#bf8700" stroke-opacity="0.5"/><circle cx="233" cy="348" r="3.5" fill="#bf8700"/><text x="242" y="352" font-size="12.5" fill="#0b0b0b">contradiction</text><rect x="20" y="370" width="820" height="1" fill="#e6e4dd"/><text x="30" y="394" font-size="12" fill="#6b6b66"><tspan font-weight="700" fill="#0b0b0b">What would change my mind?</tspan> An independent study on BRAF, melanoma and targeted therapy that breaks the tie.</text><text x="30" y="414" font-size="11" fill="#6b6b66" font-style="italic">Research signal only — not medical advice · toy/sample data by default</text></svg>